<svg width="24" height="24" viewBox="0 0 24 24" fill="none" xmlns="http://www.w3.org/2000/svg">
<g clip-path="url(#clip0_3_50)">
<path d="M16 1H8C6.34315 1 5 2.34315 5 4V20C5 21.6569 6.34315 23 8 23H16C17.6569 23 19 21.6569 19 20V4C19 2.34315 17.6569 1 16 1ZM16 4C16.5523 4 17 4.44772 17 5V19C17 19.5523 16.5523 20 16 20H8C7.44772 20 7 19.5523 7 19V5C7 4.44772 7.44772 4 8 4H16Z" fill="white"/>
</g>
<defs>
<clipPath id="clip0_3_50">
<rect width="24" height="24" fill="white"/>
</clipPath>
</defs>
</svg>
