<svg width="24" height="16" viewBox="0 0 24 16" fill="none" xmlns="http://www.w3.org/2000/svg">
<path d="M23.5 14H22V1C22 0.734784 21.8946 0.48043 21.7071 0.292893C21.5196 0.105357 21.2652 0 21 0H3C2.73478 0 2.48043 0.105357 2.29289 0.292893C2.10536 0.48043 2 0.734784 2 1V14H0.5C0.367392 14 0.240215 14.0527 0.146447 14.1464C0.0526784 14.2402 0 14.3674 0 14.5L0 15C0 15.2652 0.105357 15.5196 0.292893 15.7071C0.48043 15.8946 0.734784 16 1 16H23C23.2652 16 23.5196 15.8946 23.7071 15.7071C23.8946 15.5196 24 15.2652 24 15V14.5C24 14.3674 23.9473 14.2402 23.8536 14.1464C23.7598 14.0527 23.6326 14 23.5 14ZM12 2.75C12.445 2.75 12.88 2.88196 13.25 3.12919C13.62 3.37643 13.9084 3.72783 14.0787 4.13896C14.249 4.5501 14.2936 5.0025 14.2068 5.43895C14.12 5.87541 13.9057 6.27632 13.591 6.59099C13.2763 6.90566 12.8754 7.11995 12.439 7.20677C12.0025 7.29358 11.5501 7.24903 11.139 7.07873C10.7278 6.90843 10.3764 6.62004 10.1292 6.25003C9.88196 5.88002 9.75 5.44501 9.75 5C9.74868 4.70416 9.80597 4.41098 9.91858 4.1374C10.0312 3.86382 10.1969 3.61525 10.4061 3.40606C10.6153 3.19686 10.8638 3.03118 11.1374 2.91857C11.411 2.80597 11.7042 2.74868 12 2.75ZM16.25 13H7.75C7.6216 13.0003 7.49528 12.9675 7.38314 12.905C7.271 12.8424 7.1768 12.7521 7.10956 12.6427C7.04232 12.5334 7.00429 12.4085 6.99911 12.2802C6.99394 12.1519 7.02179 12.0245 7.08 11.91L8 10.1C8.16543 9.77168 8.41815 9.49531 8.73041 9.30125C9.04266 9.10719 9.40237 9.00296 9.77 9H14.23C14.5976 9.00296 14.9573 9.10719 15.2696 9.30125C15.5818 9.49531 15.8346 9.77168 16 10.1L16.9 11.91C16.9575 12.023 16.9854 12.1486 16.9812 12.2753C16.977 12.402 16.9407 12.5255 16.8758 12.6344C16.8109 12.7432 16.7194 12.8338 16.61 12.8978C16.5006 12.9617 16.3767 12.9969 16.25 13Z" fill="white"/>
</svg>
