<svg width="24" height="24" viewBox="0 0 24 24" fill="none" xmlns="http://www.w3.org/2000/svg">
<path d="M12 0C5.37258 0 0 5.37258 0 12C0 18.6274 5.37258 24 12 24C18.6274 24 24 18.6274 24 12C24 8.8174 22.7357 5.76516 20.4853 3.51472C18.2348 1.26428 15.1826 0 12 0ZM12 3.6C13.9882 3.6 15.6 5.21177 15.6 7.2C15.6 9.18822 13.9882 10.8 12 10.8C10.0118 10.8 8.4 9.18822 8.4 7.2C8.4 5.21177 10.0118 3.6 12 3.6ZM18.744 16.992C17.1593 19.1261 14.6581 20.3842 12 20.3842C9.34191 20.3842 6.84068 19.1261 5.256 16.992C5.01506 16.6359 4.98301 16.1782 5.172 15.792L5.424 15.264C6.01786 14.0052 7.28415 13.2015 8.676 13.2H15.324C16.6963 13.2018 17.9482 13.9837 18.552 15.216L18.828 15.78C19.0217 16.1694 18.9895 16.6331 18.744 16.992Z" fill="#FBFBFB"/>
</svg>
