<svg width="50" height="51" viewBox="0 0 50 51" fill="none" xmlns="http://www.w3.org/2000/svg">
<path d="M25 0.599998C11.1929 0.599998 0 11.7929 0 25.6C0 39.4071 11.1929 50.6 25 50.6C38.8071 50.6 50 39.4071 50 25.6C50 18.9696 47.3661 12.6107 42.6777 7.92233C37.9893 3.23392 31.6304 0.599998 25 0.599998ZM25 8.1C29.1421 8.1 32.5 11.4579 32.5 15.6C32.5 19.7421 29.1421 23.1 25 23.1C20.8579 23.1 17.5 19.7421 17.5 15.6C17.5 11.4579 20.8579 8.1 25 8.1ZM39.05 36C35.7486 40.446 30.5377 43.067 25 43.067C19.4623 43.067 14.2514 40.446 10.95 36C10.448 35.2582 10.3813 34.3045 10.775 33.5L11.3 32.4C12.5372 29.7775 15.1753 28.1031 18.075 28.1H31.925C34.784 28.1038 37.3921 29.7327 38.65 32.3L39.225 33.475C39.6285 34.2862 39.5616 35.2522 39.05 36Z" fill="#53505F"/>
</svg>
